<?xml version="1.0" encoding="UTF-8"?>
<svg width="50px" height="14px" viewBox="0 0 50 14" version="1.1" xmlns="http://www.w3.org/2000/svg" xmlns:xlink="http://www.w3.org/1999/xlink">
    <!-- Generator: Sketch 48.2 (47327) - http://www.bohemiancoding.com/sketch -->
    <title>logo</title>
    <desc>Created with Sketch.</desc>
    <defs></defs>
    <g id="assets" stroke="none" stroke-width="1" fill="none" fill-rule="evenodd">
        <g id="logo" fill="#4A4A4A">
            <path d="M4.56,2.64 L0.08,2.64 L0.08,0 L12.28,0 L12.28,2.64 L7.8,2.64 L7.8,14 L4.56,14 L4.56,2.64 Z M16.546154,14.24 C15.5994826,14.24 14.7294913,14.0633351 13.936154,13.71 C13.1428167,13.3566649 12.4928232,12.8533366 11.986154,12.2 L13.786154,10.04 C14.5461578,11.0666718 15.4128158,11.58 16.386154,11.58 C17.7061606,11.58 18.366154,10.8066744 18.366154,9.26 L18.366154,2.6 L13.446154,2.6 L13.446154,0 L21.586154,0 L21.586154,9.08 C21.586154,10.8000086 21.1594916,12.0899957 20.306154,12.95 C19.4528164,13.8100043 18.1994956,14.24 16.546154,14.24 Z M35.772308,0 L35.772308,14 L33.112308,14 L26.132308,5.5 L26.132308,14 L22.932308,14 L22.932308,0 L25.612308,0 L32.572308,8.5 L32.572308,0 L35.772308,0 Z M33.698462,13.1 C33.4051272,13.1 33.1551297,12.9933344 32.948462,12.78 C32.7417943,12.5666656 32.638462,12.3066682 32.638462,12 C32.638462,11.6933318 32.7417943,11.4366677 32.948462,11.23 C33.1551297,11.0233323 33.4051272,10.92 33.698462,10.92 C33.9917968,10.92 34.2451276,11.0233323 34.458462,11.23 C34.6717964,11.4366677 34.778462,11.6933318 34.778462,12 C34.778462,12.3066682 34.6717964,12.5666656 34.458462,12.78 C34.2451276,12.9933344 33.9917968,13.1 33.698462,13.1 Z" id="tjn."></path>
            <g id="io" transform="translate(39.000000, 3.000000)">
                <path d="M7.00747664,11 C6.24984045,11 5.56698123,10.8280391 4.9588785,10.4841121 C4.35077578,10.1401852 3.87227589,9.6641775 3.52336449,9.05607477 C3.17445308,8.44797204 3,7.76012845 3,6.99252336 C3,6.22491828 3.17445308,5.53707469 3.52336449,4.92897196 C3.87227589,4.32086923 4.35077578,3.84735372 4.9588785,3.50841121 C5.56698123,3.16946871 6.24984045,3 7.00747664,3 C7.76511282,3 8.44797204,3.16946871 9.05607477,3.50841121 C9.6641775,3.84735372 10.1401852,4.32086923 10.4841121,4.92897196 C10.8280391,5.53707469 11,6.22491828 11,6.99252336 C11,7.76012845 10.8280391,8.44797204 10.4841121,9.05607477 C10.1401852,9.6641775 9.6641775,10.1401852 9.05607477,10.4841121 C8.44797204,10.8280391 7.76511282,11 7.00747664,11 Z M7.00747664,10.0579439 C7.56573488,10.0579439 8.06666445,9.93084239 8.51028037,9.67663551 C8.9538963,9.42242864 9.30031028,9.06106153 9.54953271,8.59252336 C9.79875514,8.1239852 9.92336449,7.5906572 9.92336449,6.99252336 C9.92336449,6.39438953 9.79875514,5.86106153 9.54953271,5.39252336 C9.30031028,4.9239852 8.9538963,4.56261809 8.51028037,4.30841121 C8.06666445,4.05420434 7.56573488,3.9271028 7.00747664,3.9271028 C6.44921839,3.9271028 5.94828882,4.05420434 5.5046729,4.30841121 C5.06105697,4.56261809 4.7121508,4.9239852 4.45794393,5.39252336 C4.20373705,5.86106153 4.07663551,6.39438953 4.07663551,6.99252336 C4.07663551,7.5906572 4.20373705,8.1239852 4.45794393,8.59252336 C4.7121508,9.06106153 5.06105697,9.42242864 5.5046729,9.67663551 C5.94828882,9.93084239 6.44921839,10.0579439 7.00747664,10.0579439 Z" id="o"></path>
                <path d="M0.307692308,3.39884393 L1.67307692,3.39884393 L1.67307692,11 L0.307692308,11 L0.307692308,3.39884393 Z M1,2 C0.717947308,2 0.480770192,1.90099109 0.288461538,1.7029703 C0.0961528846,1.5049495 0,1.26732812 0,0.99009901 C0,0.726071287 0.0961528846,0.495050495 0.288461538,0.297029703 C0.480770192,0.0990089109 0.717947308,0 1,0 C1.28205269,0 1.51922981,0.0957086139 1.71153846,0.287128713 C1.90384712,0.478548812 2,0.706269307 2,0.97029703 C2,1.26072752 1.90384712,1.5049495 1.71153846,1.7029703 C1.51922981,1.90099109 1.28205269,2 1,2 Z" id="i"></path>
            </g>
        </g>
    </g>
</svg>